<svg width="12" height="13" viewBox="0 0 12 13" fill="none" xmlns="http://www.w3.org/2000/svg">
<path d="M5.48204 6.62816C5.4955 6.62816 5.50896 6.62816 5.52511 6.62816C5.5305 6.62816 5.53588 6.62816 5.54127 6.62816C5.54934 6.62816 5.56011 6.62816 5.56819 6.62816C6.35696 6.61543 6.99498 6.35305 7.46609 5.85123C8.50254 4.74568 8.33025 2.85047 8.3114 2.66961C8.2441 1.31188 7.5657 0.662307 7.00575 0.359174C6.58848 0.132461 6.10122 0.0101893 5.55742 0H5.53857C5.53588 0 5.5305 0 5.5278 0H5.51165C5.21283 0 4.62596 0.045852 4.06332 0.348985C3.49799 0.652117 2.80882 1.30169 2.74151 2.66961C2.72267 2.85047 2.55038 4.74568 3.58682 5.85123C4.05524 6.35305 4.69326 6.61543 5.48204 6.62816ZM3.4603 2.73329C3.4603 2.72565 3.46299 2.718 3.46299 2.71291C3.55183 0.886472 4.92209 0.690327 5.50896 0.690327H5.51973C5.52511 0.690327 5.53319 0.690327 5.54127 0.690327C6.26812 0.705611 7.50378 0.985818 7.58724 2.71291C7.58724 2.72055 7.58724 2.72819 7.58993 2.73329C7.59262 2.75112 7.78107 4.48331 6.92499 5.39525C6.58579 5.75697 6.13352 5.93529 5.53857 5.94038C5.53319 5.94038 5.5305 5.94038 5.52511 5.94038C5.51973 5.94038 5.51704 5.94038 5.51165 5.94038C4.9194 5.93529 4.46444 5.75697 4.12793 5.39525C3.27454 4.4884 3.4576 2.74857 3.4603 2.73329Z" fill="black"/>
<path d="M11.057 9.77152C11.057 9.76897 11.057 9.76642 11.057 9.76388C11.057 9.7435 11.0544 9.72312 11.0544 9.70019C11.0382 9.19582 11.0032 8.01641 9.83485 7.6394C9.82677 7.63685 9.816 7.63431 9.80793 7.63176C8.59381 7.33882 7.58428 6.67651 7.57351 6.66887C7.4093 6.55933 7.18316 6.59754 7.06741 6.75293C6.95165 6.90832 6.99203 7.12229 7.15624 7.23183C7.20201 7.2624 8.27345 7.96801 9.6141 8.29407C10.2414 8.50549 10.3113 9.13978 10.3302 9.72057C10.3302 9.7435 10.3302 9.76388 10.3329 9.78426C10.3356 10.0135 10.3194 10.3676 10.2763 10.5714C9.84023 10.8057 8.13077 11.6158 5.53024 11.6158C2.94047 11.6158 1.22024 10.8032 0.781432 10.5688C0.738359 10.365 0.719514 10.011 0.724898 9.78171C0.724898 9.76133 0.72759 9.74095 0.72759 9.71803C0.746435 9.13723 0.816429 8.50295 1.44368 8.29152C2.78433 7.96546 3.85577 7.2573 3.90154 7.22928C4.06575 7.11974 4.10613 6.90577 3.99037 6.75038C3.87462 6.59499 3.64848 6.55678 3.48427 6.66632C3.4735 6.67396 2.46936 7.33627 1.24985 7.62921C1.23908 7.63176 1.23101 7.63431 1.22293 7.63685C0.054574 8.01641 0.0195772 9.19582 0.00342481 9.69765C0.00342481 9.72057 0.00342475 9.74095 0.000732685 9.76133C0.000732685 9.76388 0.000732685 9.76642 0.000732685 9.76897C-0.00195938 9.90143 -0.00465139 10.5816 0.138028 10.9229C0.164949 10.9891 0.213406 11.0452 0.278016 11.0834C0.358778 11.1343 2.29437 12.301 5.53293 12.301C8.77148 12.301 10.7071 11.1318 10.7878 11.0834C10.8498 11.0452 10.9009 10.9891 10.9278 10.9229C11.0624 10.5841 11.0597 9.90398 11.057 9.77152Z" fill="black"/>
</svg>
