<svg width="84" height="31" viewBox="0 0 84 31" fill="none" xmlns="http://www.w3.org/2000/svg">
<path d="M0.469727 30H4.12305V0.605469H0.469727V30ZM6.22266 30.042H9.70801C12.9834 30.042 15.4329 28.8522 17.0566 26.4727C18.0365 25.0169 18.5264 23.3792 18.5264 21.5596C18.4984 18.8721 17.5046 16.7725 15.5449 15.2607C17.1406 14.085 18.0785 12.3773 18.3584 10.1377C18.4144 9.74577 18.4424 9.36784 18.4424 9.00391C18.4424 6.3724 17.5326 4.25879 15.7129 2.66309C14.1452 1.29134 12.1156 0.605469 9.62402 0.605469H6.22266V3.88086H9.2041C11.5837 3.88086 13.2493 4.84668 14.2012 6.77832C14.5931 7.56217 14.7891 8.37402 14.7891 9.21387C14.7891 11.6494 13.6273 13.0771 11.3037 13.4971C10.8838 13.5811 10.4359 13.623 9.95996 13.623H6.22266V16.8984H9.95996C12.5915 16.8984 14.1732 17.9342 14.7051 20.0059C14.8171 20.4258 14.873 20.8737 14.873 21.3496C14.873 23.3092 14.0752 24.793 12.4795 25.8008C11.3877 26.4447 10.0439 26.7666 8.44824 26.7666H6.22266V30.042ZM21.5498 21.8955V0.605469H25.2451V21.8955C25.2451 23.7432 26.2109 25.1289 28.1426 26.0527C28.8424 26.3887 29.4303 26.5566 29.9062 26.5566V30.21C28.2826 30.21 26.6589 29.6361 25.0352 28.4883C22.7396 26.8366 21.5778 24.639 21.5498 21.8955ZM32.0059 30.21V26.5566C32.9297 26.5566 33.8815 26.1787 34.8613 25.4229C36.0371 24.499 36.639 23.3232 36.667 21.8955V0.605469H40.3203V21.8955C40.3203 25.0309 38.9206 27.3965 36.1211 28.9922C34.6934 29.804 33.3216 30.21 32.0059 30.21ZM43.6377 30V0.605469H47.291V30H43.6377ZM49.3906 17.2764V13.959H53.2119C56.1794 13.903 57.6771 12.2513 57.7051 9.00391C57.6491 5.67253 55.9554 3.99284 52.624 3.96484H49.3906V0.605469H53.2959C57.3551 0.745443 59.8607 2.43913 60.8125 5.68652C61.0924 6.61035 61.2324 7.61816 61.2324 8.70996C61.2044 11.9574 60.2386 14.2389 58.335 15.5547C59.9587 16.4225 60.9385 18.0042 61.2744 20.2998C61.3024 20.4958 61.3304 20.6917 61.3584 20.8877L62.0723 30H58.6289L57.999 22.5254C57.7751 20.1178 57.1592 18.5781 56.1514 17.9062C55.4795 17.4583 54.5697 17.2484 53.4219 17.2764H49.3906ZM64.8018 21.8115V7.99609C64.8018 6.51237 65.4316 5.00065 66.6914 3.46094C68.3711 1.44531 70.4987 0.423503 73.0742 0.395508V4.04883C71.3665 4.04883 70.0368 4.91667 69.085 6.65234C68.693 7.4082 68.4971 8.08008 68.4971 8.66797V21.8115C68.4971 23.5752 69.3649 24.9469 71.1006 25.9268C71.8285 26.3467 72.4723 26.5566 73.0322 26.5566V30.21C71.4365 30.21 69.8408 29.6361 68.2451 28.4883C65.9775 26.8086 64.8298 24.583 64.8018 21.8115ZM75.3418 30.21V26.5566C76.3216 26.5566 77.3154 26.1227 78.3232 25.2549C79.387 24.3031 79.9329 23.1553 79.9609 21.8115V8.66797C79.9609 7.57617 79.513 6.52637 78.6172 5.51855C77.6934 4.56673 76.6016 4.07682 75.3418 4.04883V0.395508C78.1693 0.395508 80.4368 1.61328 82.1445 4.04883C83.1243 5.44857 83.6143 6.76432 83.6143 7.99609V21.8115C83.6143 24.9189 82.2285 27.2985 79.457 28.9502C78.0013 29.79 76.6296 30.21 75.3418 30.21Z" fill="#FF0000"/>
</svg>
